<svg xmlns="http://www.w3.org/2000/svg" viewBox="0 0 500 500" xml:space="preserve">
  <path fill="#FFF" d="M108.445 428.664c11.985-5.208 16.381-14.968 17.512-26.754.366-3.807.41-7.656.41-11.485.022-76.156.046-152.313-.095-228.469-.005-2.927-1.064-6.209-2.614-8.72-14.086-22.815-34.747-34.054-61.49-34.284-.993-.008-1.984-.13-3.346-.224-.084-1.503-.195-2.96-.24-4.42-.04-1.299-.009-2.6-.009-4.312h4.773c29.33 0 58.66-.065 87.987.13 2.249.014 5.16 1.272 6.63 2.946 67.634 76.957 135.142 154.024 202.664 231.078l9.44 10.773c.25-1.964.525-3.125.526-4.286.018-64.658.046-129.316-.05-193.974-.008-5.3-.46-10.675-1.425-15.882-2.418-13.058-9.143-19.304-22.464-20.802-7.913-.89-15.905-1.083-24.249-1.614v-8.114H444.47v8.754c-6.342 0-12.634-.237-18.9.071-5.457.268-10.899 1.045-16.32 1.788-7.694 1.054-12.713 5.922-13.953 13.088-1.75 10.11-2.89 20.461-2.913 30.712-.213 91.988-.124 183.975-.123 275.963v5.75c-4.466 1.23-7.152-.044-9.938-3.19-75.992-85.81-152.1-171.516-228.193-257.235-1.81-2.038-3.684-4.02-6.305-6.873v5.956c0 66.158-.027 132.315.045 198.473.006 5.977.235 12.01 1.066 17.92 2.825 20.091 12.89 29.547 33.074 31.558 4.603.458 9.212.857 13.97 1.297v8.269H76.33V435.4c10.527-2.168 21.155-4.357 32.114-6.736"/>
</svg>
